<svg width="460" height="463" viewBox="0 0 460 463" fill="none" xmlns="http://www.w3.org/2000/svg">
<path d="M263.876 -145.79C311.972 -132.709 344.484 -85.4698 385.566 -35.3925C426.121 14.7055 474.7 67.21 455.07 106.06C434.895 144.478 345.982 169.261 300.771 229.966C256.105 291.102 254.102 388.653 208.764 432.588C163.426 476.523 74.7698 467.295 6.3276 434.155C-61.5691 401.446 -108.724 344.806 -143.067 291.292C-176.901 237.304 -197.395 186.422 -213.789 132.206C-229.656 77.9693 -241.423 20.3989 -210.003 -14.3782C-179.11 -49.1346 -104.501 -61.1183 -47.401 -74.6845C9.69864 -88.2506 49.2711 -103.852 100.932 -121.286C152.576 -139.172 216.291 -159.344 263.876 -145.79Z" fill="white" fill-opacity="0.1"/>
</svg>
