<svg width="432" height="437" viewBox="0 0 432 437" fill="none" xmlns="http://www.w3.org/2000/svg">
<path d="M220.658 140.114C243.991 141.003 265.465 161.442 291.172 182.303C316.648 203.238 346.05 224.437 343.088 246.905C339.82 269.217 303.955 292.873 292.861 329.755C282.074 366.793 295.669 417.44 282.028 445.673C268.388 473.906 227.588 479.957 192.227 471.187C157.173 462.573 127.79 439.063 104.57 415.604C81.5056 391.839 64.8355 368.051 49.4935 342.039C34.3833 315.953 20.6012 287.644 29.4118 265.841C37.9906 244.113 69.3937 228.816 92.7745 214.839C116.155 200.861 131.439 187.971 151.826 172.659C172.139 157.115 197.481 138.918 220.658 140.114Z" fill="white" fill-opacity="0.1"/>
<path d="M108.723 334.241C90.5777 319.545 85.6375 290.313 77.5607 258.207C69.7144 226.18 58.8833 191.588 74.72 175.377C90.7085 159.476 133.595 162.034 164.58 139.159C195.414 115.974 214.885 67.2837 242.725 52.8582C270.565 38.4326 306.853 58.0415 329.903 86.2549C352.801 114.159 362.232 150.589 366.761 183.284C370.981 216.131 370.068 245.165 366.76 275.182C363.222 305.12 357.288 336.041 337.168 348.214C317.278 360.466 282.972 353.89 255.879 351.067C228.785 348.243 208.825 349.402 183.328 349.44C157.752 349.709 126.559 349.088 108.723 334.241Z" fill="white" fill-opacity="0.1"/>
</svg>
