<svg width="325" height="325" viewBox="0 0 325 325" fill="none" xmlns="http://www.w3.org/2000/svg">
<path d="M285.468 88.5691C270.706 66.1636 242.646 52.8581 215.528 55.4191C188.41 57.9801 163.45 76.2191 153.303 100.991C148.103 113.633 146.478 127.816 138.73 139.126C130.787 150.722 117.547 157.638 104.56 163.417C91.5728 169.195 77.9098 174.519 67.6853 184.217C57.4608 193.915 51.4353 209.515 57.4608 222.151C63.6228 234.995 79.1838 240.13 90.4223 249.1C101.661 258.07 108.804 271.265 120.277 279.936C130.878 287.95 144.548 291.473 157.951 291.447C171.354 291.421 184.536 288.041 197.055 283.368C235.879 268.879 272.455 241.917 287.944 204.178C316.616 134.29 285.468 88.5691 285.468 88.5691Z" fill="#0B2533"/>
<g opacity="0.7">
<path d="M285.468 88.5691C270.706 66.1636 242.646 52.8581 215.528 55.4191C188.41 57.9801 163.45 76.2191 153.303 100.991C148.103 113.633 146.478 127.816 138.73 139.126C130.787 150.722 117.547 157.638 104.56 163.417C91.5728 169.195 77.9098 174.519 67.6853 184.217C57.4608 193.915 51.4353 209.515 57.4608 222.151C63.6228 234.995 79.1838 240.13 90.4223 249.1C101.661 258.07 108.804 271.265 120.277 279.936C130.878 287.95 144.548 291.473 157.951 291.447C171.354 291.421 184.536 288.041 197.055 283.368C235.879 268.879 272.455 241.917 287.944 204.178C316.616 134.29 285.468 88.5691 285.468 88.5691Z" fill="white"/>
</g>
<path d="M233.303 264.414C233.303 264.414 242.728 264.362 253.18 249.802C262.313 237.068 244.977 197.646 235.26 188.578C225.542 179.511 206.627 229.034 208.824 241.579C211.951 259.454 225.425 263.959 233.303 264.414Z" fill="#0B2533"/>
<path d="M248.598 239.921L234.09 254.345L235.552 291.096H230.749C230.69 290.842 230.872 265.525 231.028 235.995L219.907 225.329C220.752 225.329 219.257 223.886 219.088 223.743L231.08 232.05C231.178 213.596 231.269 198.737 231.269 198.737L232.354 197.379L232.959 217.113L243.216 209.729C243.066 209.872 241.552 211.315 242.397 211.315L233.063 220.597L233.934 249.028L249.768 237.633C249.553 237.854 247.382 239.921 248.598 239.921Z" stroke="#263238" stroke-miterlimit="10"/>
<path d="M276.425 276.38C276.425 276.38 287.891 275.555 293.611 264.68C299.786 252.922 284.725 225.03 277.029 222.963C268.579 220.682 255.241 242.97 257.971 260.286C259.843 272.103 271.127 276.081 276.425 276.38Z" fill="#0B2533"/>
<path d="M285.031 255.06L277.036 261.411C276.789 246.5 276.581 234.592 276.581 234.592L275.599 233.474L275.235 248.703V249.035L268.449 243.711C268.449 243.711 269.535 244.816 268.976 244.823L275.151 251.537L274.735 269.048L264.484 260.982C264.484 260.982 266.018 262.548 265.232 262.555L274.637 272.786L274.585 274.807L274.527 276.985L274.208 290.797L277.523 290.758C277.445 286.319 277.374 281.658 277.302 277.004C277.237 273.039 277.159 269.068 277.107 265.252C277.107 264.966 277.107 264.7 277.107 264.42L284.452 256.38C283.776 256.386 285.031 255.06 285.031 255.06Z" stroke="#263238" stroke-miterlimit="10"/>
<path d="M262.144 284.927C261.078 284.069 259.161 284.089 257.477 284.16C257.601 283.088 258.049 282.028 258.179 280.949C258.282 280.393 258.227 279.818 258.019 279.292C257.81 278.765 257.458 278.308 257.003 277.972C255.157 276.672 251.907 277.179 249.359 277.92C249.71 275.398 247.025 272.941 243.431 272.551C239.836 272.161 235.839 273.916 234.786 276.38C233.33 274.989 230.424 274.43 228 275.08C225.575 275.73 223.853 277.543 223.976 279.292C222.117 279.168 220.044 279.084 218.503 279.883C216.241 281.066 216.397 283.458 214.655 285.005C214.093 284.898 213.511 284.945 212.973 285.142C212.435 285.339 211.961 285.678 211.6 286.123C211.009 286.897 210.905 287.781 210.547 288.613C209.819 290.277 207.401 290.485 205.094 291.213L262.84 291.694C264.094 291.291 265.167 290.433 265.115 289.503C265.063 288.574 263.509 287.82 262.307 288.281C262.723 288.301 263.386 285.915 262.144 284.927Z" fill="#0B2533"/>
<path d="M288.105 287.456C287.455 286.936 286.272 286.943 285.245 286.988C285.317 286.338 285.59 285.688 285.674 285.038C285.738 284.697 285.704 284.344 285.577 284.021C285.449 283.698 285.233 283.417 284.953 283.212C283.822 282.419 281.826 282.724 280.266 283.179C280.481 281.632 278.836 280.124 276.633 279.89C274.429 279.656 271.979 280.722 271.335 282.23C270.445 281.379 268.657 281.041 267.175 281.444C265.693 281.847 264.634 282.952 264.712 284.044C263.568 283.966 262.3 283.907 261.358 284.401C259.967 285.129 260.058 286.592 258.998 287.541C258.652 287.475 258.295 287.505 257.964 287.626C257.633 287.747 257.342 287.956 257.12 288.23C256.84 288.707 256.622 289.218 256.47 289.751C256.028 290.771 254.52 290.895 253.129 291.343L288.521 291.636C289.288 291.389 289.945 290.862 289.919 290.297C289.893 289.731 288.931 289.263 288.196 289.549C288.456 289.53 288.866 288.067 288.105 287.456Z" fill="#0B2533"/>
<path d="M145.151 175.168C143.555 174.074 141.691 173.437 139.76 173.326C137.828 173.215 135.903 173.635 134.193 174.539C132.482 175.443 131.052 176.798 130.056 178.457C129.061 180.116 128.537 182.015 128.543 183.95V184.015C128.221 183.601 127.814 183.26 127.35 183.015C126.886 182.77 126.375 182.625 125.851 182.592C125.328 182.558 124.803 182.635 124.311 182.819C123.819 183.003 123.372 183.288 122.999 183.657C122.776 181.533 121.748 179.575 120.125 178.186C118.502 176.797 116.408 176.084 114.275 176.192C112.142 176.3 110.132 177.222 108.658 178.768C107.184 180.314 106.359 182.366 106.352 184.502C106.004 184.256 105.6 184.103 105.176 184.057C104.753 184.01 104.324 184.072 103.931 184.236C103.538 184.401 103.193 184.662 102.929 184.996C102.665 185.331 102.489 185.726 102.42 186.147H161.485C161.485 184.721 161.076 183.326 160.307 182.126C159.538 180.926 158.441 179.971 157.146 179.375C155.851 178.78 154.413 178.567 153.001 178.764C151.589 178.961 150.264 179.558 149.181 180.485C148.823 179.461 148.313 178.497 147.666 177.625" stroke="#263238" stroke-linecap="round" stroke-linejoin="round"/>
<path d="M246.655 97.4282C248.597 96.7497 250.674 96.5459 252.711 96.834C254.748 97.1221 256.687 97.8937 258.364 99.0843C260.042 100.275 261.411 101.85 262.356 103.677C263.301 105.505 263.794 107.532 263.795 109.59V109.668C264.188 109.166 264.681 108.754 265.244 108.456C265.807 108.159 266.426 107.984 267.062 107.943C267.697 107.902 268.333 107.996 268.93 108.218C269.526 108.44 270.069 108.786 270.523 109.232C270.813 106.67 272.069 104.314 274.036 102.646C276.002 100.977 278.531 100.121 281.106 100.252C283.682 100.383 286.111 101.491 287.898 103.35C289.685 105.21 290.696 107.68 290.725 110.259C291.236 109.892 291.85 109.696 292.48 109.7C293.204 109.698 293.905 109.954 294.458 110.422C295.011 110.891 295.378 111.54 295.496 112.255H223.82C223.815 110.521 224.309 108.821 225.243 107.36C226.176 105.899 227.511 104.737 229.086 104.013C230.662 103.288 232.413 103.033 234.13 103.276C235.847 103.519 237.458 104.251 238.77 105.384C239.42 103.51 240.492 101.811 241.903 100.418" stroke="#263238" stroke-linecap="round" stroke-linejoin="round"/>
<path d="M26.6816 82.4653H98.3571C98.3623 80.7312 97.8685 79.0321 96.9349 77.5707C96.0012 76.1094 94.667 74.9473 93.0912 74.2232C91.5155 73.499 89.7647 73.2433 88.0477 73.4865C86.3307 73.7297 84.7198 74.4616 83.4071 75.5948C82.4113 72.7181 80.4284 70.2873 77.8105 68.7337C75.1926 67.1802 72.1089 66.6044 69.1068 67.1085C66.1046 67.6126 63.3781 69.1641 61.4113 71.4875C59.4444 73.811 58.3643 76.7561 58.3626 79.8003V79.8783C57.9704 79.377 57.4767 78.9642 56.9138 78.667C56.351 78.3698 55.7316 78.1949 55.0964 78.1538C54.4612 78.1127 53.8245 78.2063 53.228 78.4284C52.6315 78.6506 52.0887 78.9963 51.6351 79.4428C51.3449 76.8803 50.0886 74.5248 48.1222 72.8563C46.1557 71.1878 43.6271 70.3318 41.0515 70.4627C38.4759 70.5937 36.0472 71.7017 34.2601 73.561C32.4729 75.4203 31.462 77.8911 31.4331 80.4698C30.9221 80.1023 30.3076 79.9065 29.6781 79.9108C28.9573 79.9136 28.2607 80.1717 27.7121 80.6394C27.1636 81.1071 26.7984 81.754 26.6816 82.4653Z" fill="white" stroke="#263238" stroke-miterlimit="10"/>
<path d="M122.207 107.803L124.43 121.7" stroke="#0B2533" stroke-miterlimit="10"/>
<path d="M113.803 112.723L123.052 123.923" stroke="#0B2533" stroke-miterlimit="10"/>
<path d="M112.34 122.233L120.998 125.619" stroke="#0B2533" stroke-miterlimit="10"/>
<path d="M68.4121 146.419V135.714" stroke="#263238" stroke-linecap="round" stroke-linejoin="round"/>
<path d="M43.2051 146.419H68.4121V138.522H43.2051V146.419Z" fill="white" stroke="#263238" stroke-linecap="round" stroke-linejoin="round"/>
<path d="M43.2051 146.419V135.714" stroke="#263238" stroke-linecap="round" stroke-linejoin="round"/>
<path d="M131.905 291.252H182.852V202.54H131.905V291.252Z" fill="white" stroke="#263238" stroke-linecap="round" stroke-linejoin="round"/>
<path d="M81.1214 291.252H132.068L132.068 169.65H81.1214L81.1214 291.252Z" fill="white" stroke="#263238" stroke-linecap="round" stroke-linejoin="round"/>
<path d="M29.9397 291.259H80.8867L80.8867 146.205H29.9397L29.9397 291.259Z" fill="white" stroke="#263238" stroke-linecap="round" stroke-linejoin="round"/>
<path d="M71.4023 155.35V285.76" stroke="#0B2533" stroke-linecap="round" stroke-linejoin="round"/>
<path d="M60.2617 155.35V285.76" stroke="#0B2533" stroke-linecap="round" stroke-linejoin="round"/>
<path d="M49.1211 155.35V285.76" stroke="#0B2533" stroke-linecap="round" stroke-linejoin="round"/>
<path d="M37.9863 155.35V285.76" stroke="#0B2533" stroke-linecap="round" stroke-linejoin="round"/>
<path d="M123.611 175.929V188.065V200.194V212.329V224.458V236.6V248.736V260.865V273V285.136V285.37" stroke="#0B2533" stroke-linecap="round" stroke-linejoin="round"/>
<path d="M112.471 175.929V188.065V200.194V212.329V224.458V236.6V248.736V260.865V273V285.136V285.37" stroke="#0B2533" stroke-linecap="round" stroke-linejoin="round"/>
<path d="M101.322 175.929V188.065V200.194V212.329V224.458V236.6V248.736V260.865V273V285.136V285.37" stroke="#0B2533" stroke-linecap="round" stroke-linejoin="round"/>
<path d="M90.1875 175.929V188.065V200.194V212.329V224.458V236.6V248.736V260.865V273V285.136V285.37" stroke="#0B2533" stroke-linecap="round" stroke-linejoin="round"/>
<path d="M123.61 175.929H121.426H111.013H100.594H90.1875" stroke="#0B2533" stroke-linecap="round" stroke-linejoin="round"/>
<path d="M123.61 188.065H121.426H111.013H100.594H90.1875" stroke="#0B2533" stroke-linecap="round" stroke-linejoin="round"/>
<path d="M123.61 200.194H121.426H111.013H100.594H90.1875" stroke="#0B2533" stroke-linecap="round" stroke-linejoin="round"/>
<path d="M123.61 212.329H121.426H111.013H100.594H90.1875" stroke="#0B2533" stroke-linecap="round" stroke-linejoin="round"/>
<path d="M123.61 224.458H121.426H111.013H100.594H90.1875" stroke="#0B2533" stroke-linecap="round" stroke-linejoin="round"/>
<path d="M123.61 236.6H121.426H111.013H100.594H90.1875" stroke="#0B2533" stroke-linecap="round" stroke-linejoin="round"/>
<path d="M123.61 248.736H121.426H111.013H100.594H90.1875" stroke="#0B2533" stroke-linecap="round" stroke-linejoin="round"/>
<path d="M123.61 260.865H121.426H111.013H100.594H90.1875" stroke="#0B2533" stroke-linecap="round" stroke-linejoin="round"/>
<path d="M123.61 273H121.426H111.013H100.594H90.1875" stroke="#0B2533" stroke-linecap="round" stroke-linejoin="round"/>
<path d="M123.61 285.136H121.426H111.013H100.594H90.1875" stroke="#0B2533" stroke-linecap="round" stroke-linejoin="round"/>
<path d="M177.866 209.859H139.354" stroke="#0B2533" stroke-linecap="round" stroke-linejoin="round"/>
<path d="M177.866 221.995H139.354" stroke="#0B2533" stroke-linecap="round" stroke-linejoin="round"/>
<path d="M177.866 234.124H139.354" stroke="#0B2533" stroke-linecap="round" stroke-linejoin="round"/>
<path d="M177.866 246.259H139.354" stroke="#0B2533" stroke-linecap="round" stroke-linejoin="round"/>
<path d="M177.866 258.395H139.354" stroke="#0B2533" stroke-linecap="round" stroke-linejoin="round"/>
<path d="M177.866 270.53H139.354" stroke="#0B2533" stroke-linecap="round" stroke-linejoin="round"/>
<path d="M177.866 282.659H139.354" stroke="#0B2533" stroke-linecap="round" stroke-linejoin="round"/>
<path d="M295.496 291.636H272.2H269.489H26.6816" stroke="#263238" stroke-linecap="round" stroke-linejoin="round"/>
<path d="M115.193 290.881C114.848 291.044 112.346 291.135 109.154 291.187C102.654 291.297 93.3007 291.245 93.3007 291.245C93.3007 291.245 92.7938 291.245 92.5988 288.71C92.4038 286.175 93.6518 284.16 93.7948 283.101C94.4448 278.239 92.7873 276.211 92.7613 275.853C92.7353 275.496 101.861 275.294 101.861 275.294L104.851 275.093L104.201 279.37C104.161 279.613 104.139 279.858 104.136 280.104C104.074 281.617 104.548 283.103 105.475 284.3C106.401 285.498 107.72 286.33 109.2 286.65H109.336C109.551 286.448 113.236 284.745 114.744 287.098C115.57 288.379 115.193 290.881 115.193 290.881Z" fill="#263238"/>
<mask id="mask0_483_2970" style="mask-type:luminance" maskUnits="userSpaceOnUse" x="92" y="275" width="24" height="17">
<path d="M115.193 290.881C114.848 291.044 112.346 291.135 109.154 291.187C102.654 291.297 93.3007 291.245 93.3007 291.245C93.3007 291.245 92.7938 291.245 92.5988 288.71C92.4038 286.175 93.6518 284.16 93.7948 283.101C94.4448 278.239 92.7873 276.211 92.7613 275.853C92.7353 275.496 101.861 275.294 101.861 275.294L104.851 275.093L104.201 279.37C104.161 279.613 104.139 279.858 104.136 280.104C104.074 281.617 104.548 283.103 105.475 284.3C106.401 285.498 107.72 286.33 109.2 286.65H109.336C109.551 286.448 113.236 284.745 114.744 287.098C115.57 288.379 115.193 290.881 115.193 290.881Z" fill="white"/>
</mask>
<g mask="url(#mask0_483_2970)">
<path opacity="0.2" d="M115.193 290.881C114.848 291.044 112.346 291.135 109.154 291.187C102.654 291.297 93.3007 291.245 93.3007 291.245C93.3007 291.245 92.7938 291.245 92.5988 288.71C92.4038 286.175 93.6518 284.16 93.7948 283.101C94.4448 278.239 92.7873 276.211 92.7613 275.853C92.7353 275.496 101.861 275.294 101.861 275.294L104.851 275.093L104.201 279.37C104.161 279.613 104.139 279.858 104.136 280.104C104.074 281.617 104.548 283.103 105.475 284.3C106.401 285.498 107.72 286.33 109.2 286.65H109.336C109.551 286.448 113.236 284.745 114.744 287.098C115.57 288.379 115.193 290.881 115.193 290.881Z" fill="white"/>
<path opacity="0.3" d="M109.154 291.2C102.654 291.31 93.3007 291.258 93.3007 291.258C93.3007 291.258 92.7938 291.258 92.5988 288.723C92.4038 286.188 93.6518 284.173 93.7948 283.114C94.4448 278.252 92.7873 276.224 92.7613 275.866C92.7353 275.509 101.861 275.307 101.861 275.307L104.851 275.106L104.201 279.383C104.161 279.626 104.139 279.871 104.136 280.117C102.076 281.82 100.438 283.192 100.438 283.192C100.438 283.192 108.79 285.948 109.154 291.2Z" fill="black"/>
</g>
<path d="M115.193 290.881C114.848 291.044 112.346 291.135 109.154 291.187C102.654 291.297 93.3007 291.245 93.3007 291.245C93.3007 291.245 92.7938 291.245 92.5988 288.71C92.4038 286.175 93.6518 284.16 93.7948 283.101C94.4448 278.239 92.7873 276.211 92.7613 275.853C92.7353 275.496 101.861 275.294 101.861 275.294L104.851 275.093L104.201 279.37C104.161 279.613 104.139 279.858 104.136 280.104C104.074 281.617 104.548 283.103 105.475 284.3C106.401 285.498 107.72 286.33 109.2 286.65H109.336C109.551 286.448 113.236 284.745 114.744 287.098C115.57 288.379 115.193 290.881 115.193 290.881Z" stroke="#263238" stroke-linecap="round" stroke-linejoin="round"/>
<path d="M106.828 269.503C107.134 271.134 107.894 271.596 107.4 272.363C107.329 272.48 107.257 272.616 107.186 272.759C106.802 273.552 106.393 274.67 104.885 275.093C103.11 275.593 94.6146 276.055 92.7816 275.827C90.9486 275.6 89.9086 273.877 89.8046 272.421C89.7006 270.965 90.4936 270.055 90.3701 268.424C90.2466 266.792 88.9726 266.318 88.8881 265.232C88.8036 264.147 89.8566 262.567 89.8436 261.482C89.8436 259.194 89.8826 261.69 90.3376 248.683C90.5911 241.267 92.3851 239.655 90.3376 231.244C89.5966 228.208 81.6406 173.251 81.6406 173.251L106.178 174.72C106.178 174.72 106.568 184.08 107.01 195.136C107.569 209.202 108.213 226.011 108.232 229.794C108.271 237.477 107.582 248.241 107.004 257.796C106.763 261.872 106.354 264.68 107.004 266.246C107.081 266.41 107.127 266.586 107.14 266.766C107.251 267.8 106.516 267.871 106.828 269.503Z" fill="#0B2533"/>
<mask id="mask1_483_2970" style="mask-type:luminance" maskUnits="userSpaceOnUse" x="81" y="173" width="28" height="103">
<path d="M106.828 269.503C107.134 271.134 107.894 271.596 107.4 272.363C107.329 272.48 107.257 272.616 107.186 272.759C106.802 273.552 106.393 274.67 104.885 275.093C103.11 275.593 94.6146 276.055 92.7816 275.827C90.9486 275.6 89.9086 273.877 89.8046 272.421C89.7006 270.965 90.4936 270.055 90.3701 268.424C90.2466 266.792 88.9726 266.318 88.8881 265.232C88.8036 264.147 89.8566 262.567 89.8436 261.482C89.8436 259.194 89.8826 261.69 90.3376 248.683C90.5911 241.267 92.3851 239.655 90.3376 231.244C89.5966 228.208 81.6406 173.251 81.6406 173.251L106.178 174.72C106.178 174.72 106.568 184.08 107.01 195.136C107.569 209.202 108.213 226.011 108.232 229.794C108.271 237.477 107.582 248.241 107.004 257.796C106.763 261.872 106.354 264.68 107.004 266.246C107.081 266.41 107.127 266.586 107.14 266.766C107.251 267.8 106.516 267.871 106.828 269.503Z" fill="white"/>
</mask>
<g mask="url(#mask1_483_2970)">
<path opacity="0.3" d="M107.186 272.759C106.802 273.552 106.393 274.67 104.885 275.093C103.11 275.593 94.6146 276.055 92.7816 275.827C90.9486 275.6 89.9086 273.877 89.8046 272.421C89.7006 270.965 90.4936 270.055 90.3701 268.424C90.2466 266.792 88.9726 266.318 88.8881 265.232C88.8036 264.147 89.8566 262.567 89.8436 261.482C89.8436 259.194 89.8826 261.69 90.3376 248.683C90.5911 241.267 92.3851 239.655 90.3376 231.244C89.5966 228.208 81.6406 173.251 81.6406 173.251L106.178 174.72C106.178 174.72 106.568 184.08 107.01 195.136C104.053 207.434 100.621 220.967 99.3336 223.242L101.362 226.785C101.362 226.785 96.5126 238.036 96.5126 239.395C96.5126 240.753 98.1506 253.461 98.7161 256.1C99.2816 258.739 96.5126 256.86 96.5126 259.083C96.5126 261.131 96.2916 271.095 107.186 272.759Z" fill="black"/>
</g>
<path d="M106.828 269.503C107.134 271.134 107.894 271.596 107.4 272.363C107.329 272.48 107.257 272.616 107.186 272.759C106.802 273.552 106.393 274.67 104.885 275.093C103.11 275.593 94.6146 276.055 92.7816 275.827C90.9486 275.6 89.9086 273.877 89.8046 272.421C89.7006 270.965 90.4936 270.055 90.3701 268.424C90.2466 266.792 88.9726 266.318 88.8881 265.232C88.8036 264.147 89.8566 262.567 89.8436 261.482C89.8436 259.194 89.8826 261.69 90.3376 248.683C90.5911 241.267 92.3851 239.655 90.3376 231.244C89.5966 228.208 81.6406 173.251 81.6406 173.251L106.178 174.72C106.178 174.72 106.568 184.08 107.01 195.136C107.569 209.202 108.213 226.011 108.232 229.794C108.271 237.477 107.582 248.241 107.004 257.796C106.763 261.872 106.354 264.68 107.004 266.246C107.081 266.41 107.127 266.586 107.14 266.766C107.251 267.8 106.516 267.871 106.828 269.503Z" stroke="#263238" stroke-linecap="round" stroke-linejoin="round"/>
<path d="M104.95 192.484C104.95 192.484 101.941 195.084 99.373 194.616" stroke="#263238" stroke-linecap="round" stroke-linejoin="round"/>
<path d="M104.65 197.398C104.65 197.398 99.5805 196.176 99.002 195.149" stroke="#263238" stroke-linecap="round" stroke-linejoin="round"/>
<path d="M98.1504 220.558C98.1504 220.558 100.887 227.708 103.929 229.437" stroke="#263238" stroke-linecap="round" stroke-linejoin="round"/>
<path d="M104.065 268.015C104.065 268.015 97.9873 269.893 94.9648 268.522C91.9423 267.15 97.3503 271.661 103.031 271.265" stroke="#263238" stroke-linecap="round" stroke-linejoin="round"/>
<path d="M95.459 235.599C95.459 235.599 95.511 254.611 100.47 258.394" stroke="#263238" stroke-linecap="round" stroke-linejoin="round"/>
<path d="M100.555 278.232C101.727 277.765 102.972 277.503 104.234 277.459" stroke="#263238" stroke-linecap="round" stroke-linejoin="round"/>
<path d="M100.666 280.696C100.666 280.696 102.428 280.046 103.702 279.786" stroke="#263238" stroke-linecap="round" stroke-linejoin="round"/>
<path d="M100.998 283.056L103.839 282.204" stroke="#263238" stroke-linecap="round" stroke-linejoin="round"/>
<path d="M102.381 284.986L104.714 284.069" stroke="#263238" stroke-linecap="round" stroke-linejoin="round"/>
<path d="M105.027 286.643L106.386 285.597" stroke="#263238" stroke-linecap="round" stroke-linejoin="round"/>
<path d="M101.14 275.886C101.14 275.886 100.913 282.386 102.967 284.524C105.021 286.663 107.198 286.708 107.01 287.527" stroke="#263238" stroke-linecap="round" stroke-linejoin="round"/>
<path d="M82.4007 275.125C82.4007 275.125 73.2097 275.314 73.1772 275.678C73.1447 276.042 74.4772 278.063 72.9627 282.919C72.6377 283.978 71.0127 285.987 70.8047 288.515C70.5967 291.044 71.0712 291.044 71.0712 291.044C71.0712 291.044 91.8712 291.161 93.0217 290.686C93.0217 290.686 93.8277 288.19 93.2362 286.949C92.0662 284.485 87.7697 286.474 87.9062 286.5H87.7697C84.5652 285.792 82.9532 282.6 84.0452 279.22L85.4297 274.95L82.4007 275.125Z" fill="#263238"/>
<mask id="mask2_483_2970" style="mask-type:luminance" maskUnits="userSpaceOnUse" x="70" y="274" width="24" height="18">
<path d="M82.4007 275.125C82.4007 275.125 73.2097 275.314 73.1772 275.678C73.1447 276.042 74.4772 278.063 72.9627 282.919C72.6377 283.978 71.0127 285.987 70.8047 288.515C70.5967 291.044 71.0712 291.044 71.0712 291.044C71.0712 291.044 91.8712 291.161 93.0217 290.686C93.0217 290.686 93.8277 288.19 93.2362 286.949C92.0662 284.485 87.7697 286.474 87.9062 286.5H87.7697C84.5652 285.792 82.9532 282.6 84.0452 279.22L85.4297 274.95L82.4007 275.125Z" fill="white"/>
</mask>
<g mask="url(#mask2_483_2970)">
<path opacity="0.25" d="M82.4007 275.125C82.4007 275.125 73.2097 275.314 73.1772 275.678C73.1447 276.042 74.4772 278.063 72.9627 282.919C72.6377 283.978 71.0127 285.987 70.8047 288.515C70.5967 291.044 71.0712 291.044 71.0712 291.044C71.0712 291.044 91.8712 291.161 93.0217 290.686C93.0217 290.686 93.8277 288.19 93.2362 286.949C92.0662 284.485 87.7697 286.474 87.9062 286.5H87.7697C84.5652 285.792 82.9532 282.6 84.0452 279.22L85.4297 274.95L82.4007 275.125Z" fill="white"/>
</g>
<path d="M82.4007 275.125C82.4007 275.125 73.2097 275.314 73.1772 275.678C73.1447 276.042 74.4772 278.063 72.9627 282.919C72.6377 283.978 71.0127 285.987 70.8047 288.515C70.5967 291.044 71.0712 291.044 71.0712 291.044C71.0712 291.044 91.8712 291.161 93.0217 290.686C93.0217 290.686 93.8277 288.19 93.2362 286.949C92.0662 284.485 87.7697 286.474 87.9062 286.5H87.7697C84.5652 285.792 82.9532 282.6 84.0452 279.22L85.4297 274.95L82.4007 275.125Z" stroke="#263238" stroke-linecap="round" stroke-linejoin="round"/>
<path d="M104.001 174.72L79.7165 173.251C79.7165 173.251 78.228 228.117 78.4165 231.146C79.021 239.544 76.954 241.15 75.42 248.56C72.729 261.56 73.093 259.051 72.729 261.332C72.5535 262.418 71.2275 263.997 71.1235 265.083C71.0195 266.168 72.2155 266.643 72.0595 268.268C71.9035 269.893 70.9415 270.816 70.805 272.259C70.6685 273.702 71.403 275.431 73.197 275.658C74.991 275.886 83.597 275.424 85.43 274.924C87.263 274.423 87.7895 272.974 88.4135 272.2C89.0375 271.427 88.3615 270.972 88.329 269.34C88.2965 267.709 89.031 267.663 89.1285 266.597C89.1463 266.423 89.1309 266.246 89.083 266.077C88.6865 264.524 89.5835 261.722 90.5195 257.627C92.7295 248.092 95.284 237.341 96.558 229.677C97.208 225.855 99.4895 208.734 101.362 194.577C101.362 194.577 103.156 191.685 104.066 186.082" fill="#0B2533"/>
<mask id="mask3_483_2970" style="mask-type:luminance" maskUnits="userSpaceOnUse" x="70" y="173" width="35" height="103">
<path d="M104.001 174.72L79.7165 173.251C79.7165 173.251 78.228 228.117 78.4165 231.146C79.021 239.544 76.954 241.15 75.42 248.56C72.729 261.56 73.093 259.051 72.729 261.332C72.5535 262.418 71.2275 263.997 71.1235 265.083C71.0195 266.168 72.2155 266.643 72.0595 268.268C71.9035 269.893 70.9415 270.816 70.805 272.259C70.6685 273.702 71.403 275.431 73.197 275.658C74.991 275.886 83.597 275.424 85.43 274.924C87.263 274.423 87.7895 272.974 88.4135 272.2C89.0375 271.427 88.3615 270.972 88.329 269.34C88.2965 267.709 89.031 267.663 89.1285 266.597C89.1463 266.423 89.1309 266.246 89.083 266.077C88.6865 264.524 89.5835 261.722 90.5195 257.627C92.7295 248.092 95.284 237.341 96.558 229.677C97.208 225.855 99.4895 208.734 101.362 194.577C101.362 194.577 103.156 191.685 104.066 186.082" fill="white"/>
</mask>
<g mask="url(#mask3_483_2970)">
<path opacity="0.3" d="M79.6383 175.155L79.4238 183.352C83.5337 183.685 87.6639 183.685 91.7738 183.352C99.7948 182.637 104.676 179.081 104.676 179.081L104.026 174.72C104.026 174.72 94.9263 177.17 90.4478 176.826C85.9693 176.481 81.6793 175.942 79.6383 175.155Z" fill="black"/>
</g>
<path d="M104.001 174.72L79.7165 173.251C79.7165 173.251 78.228 228.117 78.4165 231.146C79.021 239.544 76.954 241.15 75.42 248.56C72.729 261.56 73.093 259.051 72.729 261.332C72.5535 262.418 71.2275 263.997 71.1235 265.083C71.0195 266.168 72.2155 266.643 72.0595 268.268C71.9035 269.893 70.9415 270.816 70.805 272.259C70.6685 273.702 71.403 275.431 73.197 275.658C74.991 275.886 83.597 275.424 85.43 274.924C87.263 274.423 87.7895 272.974 88.4135 272.2C89.0375 271.427 88.3615 270.972 88.329 269.34C88.2965 267.709 89.031 267.663 89.1285 266.597C89.1463 266.423 89.1309 266.246 89.083 266.077C88.6865 264.524 89.5835 261.722 90.5195 257.627C92.7295 248.092 95.284 237.341 96.558 229.677C97.208 225.855 99.4895 208.734 101.362 194.577C101.362 194.577 103.156 191.685 104.066 186.082" stroke="#263238" stroke-linecap="round" stroke-linejoin="round"/>
<path d="M92.0019 241.079C92.0019 241.079 83.6039 255.379 75.3164 260.052" stroke="#263238" stroke-linecap="round" stroke-linejoin="round"/>
<path d="M75.1719 268.015L84.1874 269.152C84.8374 269.237 85.6759 269.497 85.6109 270.186C85.5459 270.875 84.8504 271.187 84.2524 271.401C82.245 272.15 80.0629 272.297 77.9734 271.824" stroke="#263238" stroke-linecap="round" stroke-linejoin="round"/>
<path d="M75.4395 263.679C78.678 265.536 82.3343 266.542 86.067 266.604" stroke="#263238" stroke-linecap="round" stroke-linejoin="round"/>
<path d="M81.0938 237.653C81.0938 237.653 85.6438 237.829 87.9838 237.621C86.2483 240 83.4338 241.033 80.7168 241.17" stroke="#263238" stroke-linecap="round" stroke-linejoin="round"/>
<path d="M84.4999 180.05C84.4999 180.05 83.8499 203.411 83.6159 213.128C83.3819 222.846 82.9659 234.175 82.9659 234.175C82.7453 234.522 82.5955 234.909 82.5252 235.314C82.4549 235.719 82.4655 236.134 82.5564 236.535L82.9204 237.731L82.7254 241.104C82.4642 241.411 82.2745 241.772 82.17 242.161C82.0654 242.55 82.0486 242.957 82.1209 243.353C82.4329 244.582 79.9109 253.142 79.9109 253.142L79.4754 253.708C79.0299 254.241 78.7319 254.882 78.611 255.566C78.4902 256.25 78.5506 256.954 78.7864 257.608L77.8829 264.94C77.3971 265.337 77.0717 265.897 76.9665 266.516C76.8614 267.135 76.9837 267.771 77.3109 268.307L76.4659 272.129C76.0372 272.492 75.7506 272.995 75.6566 273.55C75.5627 274.104 75.6674 274.673 75.9524 275.158L76.0954 275.372" stroke="#263238" stroke-linecap="round" stroke-linejoin="round"/>
<path d="M126.561 136.968C125.911 138.391 120.373 142.168 120.373 142.168C120.368 141.544 120.502 140.927 120.763 140.361C121.16 139.75 121.413 139.165 121.667 138.801C121.732 137.814 121.408 136.841 120.763 136.09C120.009 135.252 119.418 137.345 119.086 138.736C118.755 140.127 116.584 142.246 116.681 143.286C116.87 144.482 117.11 145.658 117.416 146.828C117.416 146.828 108.153 150.078 107.133 148.128C104.972 143.939 102.585 139.871 99.9828 135.941C97.8053 138.983 99.5213 143.182 100.75 148.343C101.978 153.504 105.761 160.732 105.761 160.732C112.534 157.482 120.23 149.032 120.23 149.032C120.23 149.032 122.037 148.226 124.273 147.459C126.509 146.692 126.184 146.035 126.542 143.838C126.899 141.641 128.778 138.638 128.667 137.507C128.557 136.376 127.224 135.551 126.561 136.968Z" fill="white" stroke="#263238" stroke-linecap="round" stroke-linejoin="round"/>
<path d="M104.651 147.946C104.567 152.652 105.496 168.61 106.504 174.941L78.937 174.245V173.784C80.9585 166.296 79.6455 158.184 76.454 151.144C74.764 147.407 74.01 142.629 73.139 138.105C70.9225 126.587 76.4865 123.019 81.134 122.577C82.928 122.492 83.084 121.277 84.384 121.374C85.2813 121.483 86.1916 121.372 87.036 121.049C87.6145 123.409 90.819 130.338 91.9175 131.131C92.4511 131.552 93.0988 131.803 93.7768 131.852C94.4548 131.901 95.1318 131.744 95.72 131.404C96.825 130.63 97.1305 129.155 97.384 127.829C97.4982 127.11 97.7035 126.409 97.995 125.742C99.62 126.555 102.454 127.517 104.56 131.306C107.16 139.672 105.73 134.309 107.732 146.581C108.077 148.46 104.651 147.946 104.651 147.946Z" fill="white" stroke="#263238" stroke-linecap="round" stroke-linejoin="round"/>
<path d="M100.315 126.171L97.6501 125.242C99.4571 131.449 97.8906 138.502 93.3211 135.713C88.7516 132.925 86.9381 124.91 85.5731 121.413C84.8581 121.192 81.9526 121.088 80.4446 122.245C82.0176 125.125 86.2946 130.845 85.7941 135.492C85.2221 140.692 81.1336 145.307 73.4961 140.081C74.5361 147.959 77.8381 153.64 78.4751 156.331C80.8021 166.081 79.2486 167.414 78.1631 177.034C89.2131 182.669 102.584 179.868 108.44 178.152C106.653 168.35 107.439 143.65 100.315 126.171Z" fill="#0B2533"/>
<mask id="mask4_483_2970" style="mask-type:luminance" maskUnits="userSpaceOnUse" x="73" y="121" width="36" height="60">
<path d="M100.315 126.171L97.6501 125.242C99.4571 131.449 97.8906 138.502 93.3211 135.713C88.7516 132.925 86.9381 124.91 85.5731 121.413C84.8581 121.192 81.9526 121.088 80.4446 122.245C82.0176 125.125 86.2946 130.845 85.7941 135.492C85.2221 140.692 81.1336 145.307 73.4961 140.081C74.5361 147.959 77.8381 153.64 78.4751 156.331C80.8021 166.081 79.2486 167.414 78.1631 177.034C89.2131 182.669 102.584 179.868 108.44 178.152C106.653 168.35 107.439 143.65 100.315 126.171Z" fill="white"/>
</mask>
<g mask="url(#mask4_483_2970)">
<path opacity="0.3" d="M83.4727 167.55C83.4727 167.55 101.497 175.415 104.065 167.778C99.3335 168.805 94.4601 169.005 89.6607 168.369L83.4727 167.55Z" fill="black"/>
<path opacity="0.3" d="M77.084 150.533L90.1815 140.133C90.1815 140.133 92.7815 147.283 85.8135 151.385C81.101 154.16 77.084 150.533 77.084 150.533Z" fill="black"/>
</g>
<path d="M100.315 126.171L97.6501 125.242C99.4571 131.449 97.8906 138.502 93.3211 135.713C88.7516 132.925 86.9381 124.91 85.5731 121.413C84.8581 121.192 81.9526 121.088 80.4446 122.245C82.0176 125.125 86.2946 130.845 85.7941 135.492C85.2221 140.692 81.1336 145.307 73.4961 140.081C74.5361 147.959 77.8381 153.64 78.4751 156.331C80.8021 166.081 79.2486 167.414 78.1631 177.034C89.2131 182.669 102.584 179.868 108.44 178.152C106.653 168.35 107.439 143.65 100.315 126.171Z" stroke="#263238" stroke-linecap="round" stroke-linejoin="round"/>
<path d="M104.065 167.524C103.952 168.014 103.729 168.471 103.413 168.861C103.096 169.251 102.694 169.563 102.238 169.773" stroke="#263238" stroke-linecap="round" stroke-linejoin="round"/>
<path d="M99.3327 170.475C93.8505 170.975 88.3411 169.873 83.4727 167.303" stroke="#263238" stroke-linecap="round" stroke-linejoin="round"/>
<path d="M124.592 126.425L118.95 141.472C118.85 141.741 118.813 142.028 118.841 142.314C118.869 142.599 118.962 142.873 119.113 143.117L120.159 144.794C120.673 145.619 122.486 145.866 123.266 145.333C123.552 145.142 123.777 144.874 123.916 144.56L129.48 129.525C129.625 129.182 129.663 128.803 129.592 128.437C129.52 128.071 129.341 127.735 129.077 127.471L127.322 125.775C127.164 125.616 126.974 125.492 126.764 125.41C126.555 125.327 126.331 125.29 126.107 125.298C125.882 125.307 125.662 125.361 125.459 125.459C125.257 125.557 125.077 125.695 124.93 125.866C124.784 126.03 124.67 126.219 124.592 126.425Z" fill="#263238"/>
<path d="M73.4824 130.475C73.617 132.72 74.1588 134.923 75.0814 136.975C77.7919 143.423 88.1399 159.471 90.4084 160.557C92.6769 161.642 115.862 149.162 117.539 147.453C118.016 146.92 118.337 146.267 118.468 145.564C118.599 144.861 118.534 144.136 118.28 143.468C118.28 143.468 118.248 145.067 119.613 144.768C120.471 144.58 119.762 141.928 119.762 141.928C119.762 141.928 121.335 140.816 119.834 138.762C119.834 138.762 121.953 138.762 121.784 137.163C121.725 136.513 115.485 136.429 114.53 138.229C113.366 140.413 112.209 146.107 112.209 146.107C112.209 146.107 97.1034 150.007 93.9704 150.586L85.7999 132.665" fill="white"/>
<path d="M73.4824 130.475C73.617 132.72 74.1588 134.923 75.0814 136.975C77.7919 143.423 88.1399 159.471 90.4084 160.557C92.6769 161.642 115.862 149.162 117.539 147.453C118.016 146.92 118.337 146.267 118.468 145.564C118.599 144.861 118.534 144.136 118.28 143.468C118.28 143.468 118.248 145.067 119.613 144.768C120.471 144.58 119.762 141.928 119.762 141.928C119.762 141.928 121.335 140.816 119.834 138.762C119.834 138.762 121.953 138.762 121.784 137.163C121.725 136.513 115.485 136.429 114.53 138.229C113.366 140.413 112.209 146.107 112.209 146.107C112.209 146.107 97.1034 150.007 93.9704 150.586L85.7999 132.665" stroke="#263238" stroke-linecap="round" stroke-linejoin="round"/>
<path d="M117.779 148.421C118.25 147.235 119.062 146.214 120.113 145.49C121.335 144.911 123.018 144.729 124.351 144.476C124.351 144.476 125.391 140.069 125.956 140.192C127.679 140.55 126.333 144.599 126.333 144.599" fill="white"/>
<path d="M117.779 148.421C118.25 147.235 119.062 146.214 120.113 145.49C121.335 144.911 123.018 144.729 124.351 144.476C124.351 144.476 125.391 140.069 125.956 140.192C127.679 140.55 126.333 144.599 126.333 144.599" stroke="#263238" stroke-linecap="round" stroke-linejoin="round"/>
<path d="M128.408 138.606C128.185 138.383 127.888 138.253 127.573 138.239C127.259 138.226 126.952 138.331 126.711 138.534C125.873 139.295 124.599 141.446 123.24 142.597" stroke="#263238" stroke-linecap="round" stroke-linejoin="round"/>
<path d="M116.35 143.234C116.72 142.415 119.353 141.031 119.873 142.805" stroke="#263238" stroke-linecap="round" stroke-linejoin="round"/>
<path d="M116.35 141.05C116.35 141.05 119.398 139.386 120.009 141.446" stroke="#263238" stroke-linecap="round" stroke-linejoin="round"/>
<path d="M116.734 139.1C116.734 139.1 118.002 138.853 118.281 138.827C119.289 138.73 120.387 138.6 120.933 138.6" stroke="#263238" stroke-linecap="round" stroke-linejoin="round"/>
<path d="M101.361 194.617C101.361 194.617 97.299 191.035 94.9395 190.353L101.361 194.617Z" fill="#0B2533"/>
<path d="M101.361 194.617C101.361 194.617 97.299 191.035 94.9395 190.353" stroke="#263238" stroke-linecap="round" stroke-linejoin="round"/>
<path d="M80.8477 278.271C82.0452 277.802 83.3129 277.536 84.5982 277.485" stroke="#263238" stroke-linecap="round" stroke-linejoin="round"/>
<path d="M80.7559 280.8C80.7559 280.8 82.5694 280.15 83.8629 279.871" stroke="#263238" stroke-linecap="round" stroke-linejoin="round"/>
<path d="M80.8789 283.172L83.7909 282.314" stroke="#263238" stroke-linecap="round" stroke-linejoin="round"/>
<path d="M82.0957 285.136L84.5137 284.206" stroke="#263238" stroke-linecap="round" stroke-linejoin="round"/>
<path d="M84.5977 286.819L86.0472 285.759" stroke="#263238" stroke-linecap="round" stroke-linejoin="round"/>
<path d="M81.6408 275.886C81.6408 275.886 80.8478 282.516 82.7263 284.667C84.6048 286.819 86.7628 286.884 86.5093 287.722" stroke="#263238" stroke-linecap="round" stroke-linejoin="round"/>
<path d="M97.3958 124.976C97.3958 124.976 100.139 135.668 95.7383 136.481C89.7388 137.586 85.5723 121.394 85.5723 121.394C86.4888 121.336 86.5993 120.952 87.3988 120.497C87.3988 120.497 94.1003 133.9 97.3958 124.976Z" fill="#263238"/>
<path d="M79.1514 122.947C79.1514 122.947 72.8789 124.189 72.8594 133.516C72.8399 142.844 76.9739 150.611 76.9739 150.611C76.9739 150.611 81.8684 150.215 84.9624 147.946C91.4625 143.201 90.4094 140.536 90.4094 140.536L87.0034 133.789C87.0034 133.789 85.8854 129.467 81.0234 122.577L79.1514 122.947Z" fill="#263238"/>
<path d="M100.697 126.542C104.116 136.246 104.272 139.88 104.89 144.358C104.89 144.358 108.237 143.708 108.751 142.967C108.751 142.967 107.126 135.024 105.371 130.916C104.253 128.31 102.784 127.4 100.697 126.542Z" fill="#263238"/>
<path d="M97.3897 115.524C97.3897 115.524 96.9022 124.416 96.9347 125.131C96.9932 126.477 97.9682 128.265 97.0712 129.272C96.5766 129.738 95.9534 130.045 95.2824 130.153C94.6113 130.26 93.9234 130.164 93.3077 129.876C92.0883 129.27 91.0336 128.378 90.2332 127.276C88.6915 125.388 87.3538 123.342 86.2422 121.173C86.9859 120.457 87.5322 119.562 87.8282 118.573C87.8282 118.573 88.0037 117.819 88.0102 117.78C88.2367 115.948 88.2126 114.094 87.9387 112.268C87.6277 110.009 87.1032 107.785 86.3722 105.625L97.3897 115.524Z" fill="white" stroke="#263238" stroke-linecap="round" stroke-linejoin="round"/>
<path d="M88.1465 124.013C89.685 124.516 91.1769 125.151 92.6055 125.911L88.1465 124.013Z" fill="#263238"/>
<path d="M88.1465 124.013C89.685 124.516 91.1769 125.151 92.6055 125.911" stroke="#263238" stroke-linecap="round" stroke-linejoin="round"/>
<path d="M86.7879 94.0157C86.7879 94.0157 81.2499 97.1812 84.1164 105.443C86.9829 113.704 93.3724 122.934 99.1639 121.693C104.955 120.451 106.457 108.946 103.395 101.276C100.334 93.6062 92.5339 89.3617 86.7879 94.0157Z" fill="white" stroke="#263238" stroke-linecap="round" stroke-linejoin="round"/>
<path d="M103.305 109.265C103.344 109.915 103.077 110.513 102.713 110.565C102.349 110.617 102.018 110.045 101.979 109.369C101.94 108.693 102.193 108.128 102.57 108.102C102.947 108.076 103.266 108.583 103.305 109.265Z" fill="#263238"/>
<path d="M97.6554 108.998C97.6944 109.648 97.4344 110.24 97.0769 110.266C96.7194 110.292 96.3749 109.746 96.3359 109.076C96.2969 108.407 96.5569 107.828 96.9274 107.776C97.2979 107.724 97.6099 108.309 97.6554 108.998Z" fill="#263238"/>
<path d="M99.7824 95.4394C96.0709 91.8254 91.0204 90.7074 86.9774 93.9769C86.9774 93.9769 81.4459 97.1423 84.3124 105.41C85.0071 107.381 85.8479 109.298 86.8279 111.143L86.9319 111.234C86.9319 111.234 85.1119 109.421 92.3334 105.43C94.7059 104.091 98.2094 95.7384 99.7824 95.4394Z" fill="#263238" stroke="#263238" stroke-linecap="round" stroke-linejoin="round"/>
<path d="M93.9844 98.15C93.9844 98.15 94.4914 92.3975 98.4954 92.2025C100.582 92.0985 103.338 94.9 103.695 96.3755C103.92 97.3746 104.429 98.2872 105.162 99.0025C105.894 99.7178 106.819 100.205 107.823 100.406C107.823 100.406 106.666 104.306 104.41 104.592C100.686 105.047 98.7554 104.176 96.3504 100.893C95.6788 99.9399 94.9216 99.0501 94.0884 98.2345L93.9844 98.15Z" fill="#263238" stroke="#263238" stroke-linecap="round" stroke-linejoin="round"/>
<path d="M88.0228 109.2C88.0228 109.2 85.8323 104.689 83.8823 109.655C82.6668 112.749 87.5288 115.225 89.1928 114.406" fill="white"/>
<path d="M88.0228 109.2C88.0228 109.2 85.8323 104.689 83.8823 109.655C82.6668 112.749 87.5288 115.225 89.1928 114.406" stroke="#263238" stroke-linecap="round" stroke-linejoin="round"/>
<path d="M101.061 106.463C100.692 106.871 100.426 107.361 100.284 107.892C100.141 108.423 100.127 108.981 100.242 109.518C100.41 110.699 100.81 111.834 101.419 112.859L98.6367 113.75" stroke="#263238" stroke-linecap="round" stroke-linejoin="round"/>
<path d="M96.1992 115.784C96.6366 116.221 97.1892 116.523 97.7925 116.657C98.3957 116.79 99.0245 116.749 99.6052 116.538" stroke="#263238" stroke-linecap="round" stroke-linejoin="round"/>
<path d="M93.0859 106.385C93.0859 106.385 95.0359 104.227 97.3889 105.267" stroke="#263238" stroke-linecap="round" stroke-linejoin="round"/>
<path d="M102.135 105.813C102.135 105.813 104.689 105.014 104.364 107.269" stroke="#263238" stroke-linecap="round" stroke-linejoin="round"/>
<path d="M87.9784 111.67C87.7523 111.677 87.5297 111.613 87.3427 111.485C87.1557 111.358 87.0141 111.174 86.9384 110.961C86.7499 110.552 86.6979 110.084 86.5094 109.661C86.4316 109.448 86.2886 109.265 86.1007 109.138C85.9128 109.01 85.6897 108.946 85.4629 108.953" fill="#263238"/>
<path d="M87.9784 111.67C87.7523 111.677 87.5297 111.613 87.3427 111.485C87.1557 111.358 87.0141 111.174 86.9384 110.961C86.7499 110.552 86.6979 110.084 86.5094 109.661C86.4316 109.448 86.2886 109.265 86.1007 109.138C85.9128 109.01 85.6897 108.946 85.4629 108.953" stroke="#263238" stroke-linecap="round" stroke-linejoin="round"/>
<path d="M96.0832 93.8404C95.8072 92.6779 95.3696 91.5599 94.7832 90.5189C94.7832 90.5189 95.8427 90.2524 96.4277 90.1289C96.2977 91.2664 96.2002 92.6964 96.0832 93.8404Z" fill="#263238" stroke="#263238" stroke-linecap="round" stroke-linejoin="round"/>
<path d="M97.194 121.446L97.2395 123.396C96.8111 123.585 96.3376 123.648 95.8745 123.578C93.3785 123.285 90.863 117.728 90.707 117.409L90.759 117.468C93.71 120.724 95.9005 121.426 97.194 121.446Z" fill="#263238"/>
<path d="M181.52 140.153H197.945" stroke="#263238" stroke-linecap="round" stroke-linejoin="round"/>
<path d="M162.676 140.153H179.355" stroke="#263238" stroke-linecap="round" stroke-linejoin="round"/>
<path d="M153.791 140.153H158.92" stroke="#263238" stroke-linecap="round" stroke-linejoin="round"/>
<path d="M167.277 149.071H197.879" stroke="#263238" stroke-linecap="round" stroke-linejoin="round"/>
<path d="M158.92 149.071H162.677" stroke="#263238" stroke-linecap="round" stroke-linejoin="round"/>
<path d="M180.973 157.996H197.814" stroke="#263238" stroke-linecap="round" stroke-linejoin="round"/>
<path d="M164.047 157.996H178.483" stroke="#263238" stroke-linecap="round" stroke-linejoin="round"/>
<path d="M178.666 166.914H197.75" stroke="#263238" stroke-linecap="round" stroke-linejoin="round"/>
<path d="M169.176 166.914H175.955" stroke="#263238" stroke-linecap="round" stroke-linejoin="round"/>
<path d="M234.788 167.238H186.961L189.359 139.815H237.186L234.788 167.238Z" fill="white" stroke="#263238" stroke-linecap="round" stroke-linejoin="round"/>
<path d="M237.186 139.821H189.359" stroke="#263238" stroke-linecap="round" stroke-linejoin="round"/>
<path d="M234.788 167.239H186.961L203.308 151.717L211.615 158.795L221.339 151.58L234.788 167.239Z" fill="white" stroke="#263238" stroke-linecap="round" stroke-linejoin="round"/>
<path d="M237.186 139.815L221.339 151.58L211.615 158.795L203.308 151.716L189.359 139.815H237.186Z" fill="white" stroke="#263238" stroke-linecap="round" stroke-linejoin="round"/>
<path d="M149.214 140.153H137.209" stroke="#263238" stroke-linecap="round" stroke-linejoin="round"/>
<path d="M195.215 108.739C185.634 116.539 167.948 121.303 167.948 121.303L176.859 111.755C172.512 110.355 168.761 107.536 166.207 103.75C163.654 99.9639 162.445 95.4298 162.776 90.8749C163.107 86.32 164.958 82.0082 168.032 78.6308C171.106 75.2535 175.225 73.0063 179.729 72.2496C184.233 71.4929 188.86 72.2705 192.869 74.4578C196.879 76.6451 200.037 80.1153 201.838 84.312C203.639 88.5086 203.979 93.1886 202.803 97.6015C201.627 102.014 199.003 105.904 195.352 108.648" fill="white"/>
<path d="M195.215 108.739C185.634 116.539 167.948 121.303 167.948 121.303L176.859 111.755C172.512 110.355 168.761 107.536 166.207 103.75C163.654 99.9639 162.445 95.4298 162.776 90.8749C163.107 86.32 164.958 82.0082 168.032 78.6308C171.106 75.2535 175.225 73.0063 179.729 72.2496C184.233 71.4929 188.86 72.2705 192.869 74.4578C196.879 76.6451 200.037 80.1153 201.838 84.312C203.639 88.5086 203.979 93.1886 202.803 97.6015C201.627 102.014 199.003 105.904 195.352 108.648" stroke="#263238" stroke-linecap="round" stroke-linejoin="round"/>
<path d="M195.703 83.5708C199.016 83.5708 201.702 80.8847 201.702 77.5713C201.702 74.2578 199.016 71.5718 195.703 71.5718C192.389 71.5718 189.703 74.2578 189.703 77.5713C189.703 80.8847 192.389 83.5708 195.703 83.5708Z" fill="#0B2533" stroke="#263238" stroke-linecap="round" stroke-linejoin="round"/>
<path d="M192.225 76.2322L195.702 80.1452L203.613 70.7852L203.333 70.4927L195.702 77.0577L193.681 74.8542L192.225 76.2322Z" fill="#263238" stroke="#263238" stroke-linecap="round" stroke-linejoin="round"/>
<path d="M172.562 87.4185H194.968" stroke="#263238" stroke-linecap="round" stroke-linejoin="round"/>
<path d="M172.057 93.2036H194.462" stroke="#263238" stroke-linecap="round" stroke-linejoin="round"/>
<path d="M171.555 98.9888H193.954" stroke="#263238" stroke-linecap="round" stroke-linejoin="round"/>
<path d="M242.111 36.3677V46.6247L270.172 24.9927L242.111 36.3677Z" fill="#0B2533" stroke="#263238" stroke-linecap="round" stroke-linejoin="round"/>
<path d="M242.112 36.3676L270.816 24.6416L231.621 28.7041L242.112 36.3676Z" fill="#0B2533" stroke="#263238" stroke-linecap="round" stroke-linejoin="round"/>
<path d="M245.484 38.4931L258.998 48.4901L270.815 24.6416L245.484 38.4931Z" fill="#0B2533" stroke="#263238" stroke-linecap="round" stroke-linejoin="round"/>
<path d="M245.485 38.4932L242.111 46.6247L249.3 41.3142L245.485 38.4932Z" fill="#0B2533" stroke="#263238" stroke-linecap="round" stroke-linejoin="round"/>
<path d="M134.582 124.456C134.654 124.248 134.732 124.046 134.803 123.845" stroke="#263238" stroke-linecap="round" stroke-linejoin="round"/>
<path d="M135.654 121.388C141.699 103.337 140.614 92.4886 150.429 75.0036C152.379 71.4676 162.252 54.7366 176.279 48.7696C183.572 45.6691 188.213 50.2971 186.335 53.5731C182.142 60.8661 166.744 52.1236 182.142 43.4916C196.39 35.5096 226.719 51.1161 240.935 46.6376" stroke="#263238" stroke-linecap="round" stroke-linejoin="round" stroke-dasharray="2 4"/>
<path d="M242.15 46.189C242.352 46.1045 242.547 46.0135 242.742 45.916" stroke="#263238" stroke-linecap="round" stroke-linejoin="round"/>
</svg>
