<svg width="72" height="72" viewBox="0 0 72 72" fill="none" xmlns="http://www.w3.org/2000/svg">
<g clip-path="url(#clip0_171_437)">
<path fill-rule="evenodd" clip-rule="evenodd" d="M25.3132 24.3462C25.3132 18.5471 30.0979 13.8462 35.9999 13.8462C41.902 13.8462 46.6868 18.5471 46.6868 24.3462C46.6868 30.1452 41.902 34.8462 35.9999 34.8462C30.0979 34.8462 25.3132 30.1452 25.3132 24.3462ZM35.9999 9C27.3738 9 20.3808 15.8707 20.3808 24.3462C20.3808 32.8216 27.3738 39.6923 35.9999 39.6923C44.6263 39.6923 51.6191 32.8216 51.6191 24.3462C51.6191 15.8707 44.6263 9 35.9999 9ZM17.3013 61.1847C20.5466 54.2172 27.7015 49.3846 35.9999 49.3846C44.2985 49.3846 51.4534 54.2172 54.6986 61.1847C55.3819 62.6521 55.0714 63.9967 54.0833 65.1075C53.0327 66.2887 51.2127 67.1539 49.1529 67.1539H22.847C20.7872 67.1539 18.9674 66.2887 17.9166 65.1075C16.9285 63.9967 16.618 62.6521 17.3013 61.1847ZM35.9999 44.5385C25.7014 44.5385 16.8348 50.5406 12.8163 59.168C11.2325 62.5684 12.092 65.9239 14.2028 68.2966C16.2508 70.5988 19.4586 72 22.847 72H49.1529C52.5415 72 55.7492 70.5988 57.7971 68.2966C59.9081 65.9239 60.7674 62.5684 59.1837 59.168C55.1652 50.5406 46.2987 44.5385 35.9999 44.5385Z" fill="#455A64" fill-opacity="0.5"/>
</g>
<defs>
<clipPath id="clip0_171_437">
<rect width="72" height="72" fill="white"/>
</clipPath>
</defs>
</svg>
